<svg version="1" xmlns="http://www.w3.org/2000/svg" width="800" height="800" viewBox="0 0 600 600"><path d="M0 300v300h102c74.4 0 102-.3 102-1.1 0-.6-.9-.9-1.9-.6-1.5.4-2.1-.2-2.6-2.7-1.2-5.1-.7-19.9.6-19.1.4.3.5-.4.2-1.5s-1-1.7-1.5-1.4c-.6.4-.9-.6-.8-2.2.6-8 .4-8-4.7-3.5-2.7 2.3-5.5 4.8-6.3 5.5-1.9 1.7-7.6 3.6-10.6 3.6-3.6 0-1.9-2.6 2.9-4.5 2.3-.9 5.3-2.6 6.5-3.8 3-2.8 6.7-9.7 5.1-9.7-.6 0-.8-.7-.5-1.5.3-.9 0-2.4-.6-3.5-.9-1.4-1-3-.2-5.7.8-3.2.7-4.2-.7-5.7-1.7-1.7-5-10.4-5.4-13.8-.1-1-.4-2.1-.8-2.4-.4-.4-.2-1.3.4-2.1.9-1 .8-1.3-.5-1.3-.9 0-1.6-.7-1.6-1.6 0-1.2-.6-1.5-2.5-1-1.4.4-2.5.2-2.5-.2 0-1.2 3.4-4.2 4.8-4.2.7 0 1.2-.5 1.2-1 0-.6-.7-1-1.6-1-.8 0-2.3-.7-3.1-1.6-1.4-1.4-1.4-1.9-.3-3.7.9-1.5 1-2.2.1-2.5-.6-.2-1.1-1-1.1-1.8 0-1.4-1.7-1.9-5.5-1.5-2.9.2-6.5 4.1-6.5 7-.1 2.2-.2 2.4-1.1.9-1.2-2.2 3.4-11.8 5.7-11.8 2 0 7.1-2.7 9.3-4.9 4.1-4.1 9.3-16.1 7-16.1-.5 0-.9.4-.9.9s-1.3 1.1-2.9 1.4c-2.9.6-4.7 2.2-12.4 10.5-4.4 4.8-5 5-7 2.1-1.4-1.9-1.7-2-3.9-.5-2.8 1.8-6.8 8.5-6.8 11.2 0 1.4-.3 1.5-1.2.6-.9-.9-.8-2.4.6-6.7.9-3 2.1-5.7 2.6-6 .6-.4 1-1.7 1-3s.7-2.8 1.5-3.2c2-1.2 1.6-8.8-.5-8.8-3 0-1.5-3.9 2.7-7.1 3.9-3 4.1-3.3 2.2-3.9-1.2-.4-2.6-.2-3.2.4-.6.6-1.5 1.1-1.9 1.1-1.3 0-.9-2.8.5-3.3.9-.4.9-.7 0-1.7-2-2.1-5.6.2-10.2 6.4-4 5.4-6.1 7.5-6.1 5.9.1-1.2 3.4-10.6 4.3-12 .4-.6.5-1.7.2-2.5-.6-1.5 1.3-3.7 6.4-7.8 3.7-3 4.2-4.7.6-2.4-2.4 1.6-2.5 1.6-2.5-1 0-1.6.6-2.6 1.4-2.6.8 0 1.7-.9 2.1-1.9.3-1.1 1.9-2.6 3.5-3.3 1.7-.7 3-1.9 3-2.5 0-.7.6-1.3 1.4-1.3.7 0 1.9-.7 2.6-1.5.7-.8 2.2-1.5 3.4-1.5 1.1 0 2.8-.6 3.7-1.3 1.5-1.1 1.2-1.5-2.2-3.1-2.2-1.1-3.9-2.3-3.9-2.7 0-.5 1.8-1.2 4.1-1.5 4.9-.8 8-4.5 6.1-7.3-3-4.1-3-4.2 3.3-8.8.6-.5 2.7-2.3 4.8-4 3.4-3 4.4-3.3 10.1-3.3 9.3 0 17 3.3 15.8 6.8-.2.6.4 1.2 1.2 1.2.9 0 1.9.7 2.2 1.5.5 1.1 1 1.3 1.9.5 1.4-1.2 2.5-.3 2.5 2 0 1.4.7 1.6 3.7 1.1 3.1-.5 3.8-1.1 4.5-3.9l.9-3.2h8c5.1 0 7.8.4 7.4 1-.3.5.1 1 1 1 .8 0 2.3.4 3.3.9.9.5 5.8 2.2 10.7 3.6 10 3 14 4.8 17.1 7.7 1.2 1.1 2.8 2 3.5 2.2.8.1 2.9 1 4.8 2 3.7 1.9 8.1 1.5 8.1-.9 0-.8.9-2.3 2.1-3.3 1.8-1.7 1.8-2 .4-2.6-.9-.3-2.7-.3-4.1 0-1.3.3-2.4.2-2.4-.4 0-1 4.6-2.2 8.6-2.2 2.4 0 2.4-.1 1-3.4-1.5-3.6-1.2-4.6 1.2-4.6.9 0 1.2.6.8 1.8-.4.9.3.5 1.6-1s3.4-2.9 4.8-3.1c1.4-.1 3.6-1 5-1.9 1.4-.9 5.1-2.6 8.3-3.8 5.2-1.9 5.7-2.4 5.7-5.1 0-1.6-.3-2.8-.7-2.7-1.8.3-6.3-1.5-6.3-2.6 0-.6.7-2.2 1.7-3.5 1.2-1.9 1.4-2.8.5-4.2-.9-1.3-.9-2-.1-2.5s.6-1-.5-1.6c-2.3-1.3-2-3.8.5-3.8 3 0 2-3.1-1.6-5-1.7-.8-3.2-1.6-3.4-1.7-.2-.2.2-.9.9-1.8.7-.8.9-2.2.5-3.2-1.3-3-1.2-5.4.1-9.2.7-2 1.3-4.5 1.3-5.6.1-1.1-3.5-7.2-7.9-13.5s-8-12-8-12.7c0-1.5-3.6-5-7.1-6.7-2.3-1.1-2.7-1.1-3.8.5-1.7 2.8-2.8 2.3-2.9-1.1 0-1.6.3-3 .8-3 .4 0 1.1-.7 1.4-1.6.5-1.3.1-1.5-1.9-1-2.8.7-3 .4-1.4-2.6.6-1.1 1.3-3.5 1.4-5.2.2-1.7.6-5 1-7.3l.7-4.1-3.8.2c-3.9.2-9.4 3-9.4 4.7 0 .5-1.3.9-2.9.9-2.3 0-3.3-.7-4.5-3.1-.9-1.7-1.3-3.5-1.1-3.9.3-.5 0-1-.7-1.2-.9-.3-.9-1.1 0-3.4.7-1.6 1.3-4.3 1.2-5.9 0-1.7.3-5 .6-7.4.5-3.3.3-4.7-.9-5.5-.8-.7-1.7-2-2-3.1-.4-1.8-.5-1.8-.6.2-.2 3.2-2 3.8-3 1.1-.9-2.1-1-1.9-1 1.3-.1 2.9-.6 3.8-2.3 4.2-1.3.4-2.6.1-3-.6-.5-.8-.8-.4-.8 1 0 3.3-1.8 2.8-2.2-.5-.2-2.2-.7-2.6-2.5-2.4-1.3.2-2.3-.2-2.3-.7 0-1.3-4.2-5.7-5.1-5.4-.4.1-.5-.5-.3-1.5.3-.9-.7-2.9-2.1-4.5-1.5-1.5-3.1-4.1-3.7-5.7-.5-1.7-1.4-3-1.9-3s-.9-.7-.9-1.6c0-.8.5-1.2 1.1-.9.7.5.8-.5.4-2.9-.6-3.1-.5-3.5 1-3 .9.4 2.1 1.6 2.6 2.8.7 1.6.8 1.1.5-2.2-.3-2.7 0-4 .6-3.6.6.4.8-.1.5-1.2-2.2-7.1-2.1-7.2 1.8-7.2 4.2 0 5.4-.7 3.7-2.4-.7-.7-1.2-1.6-1.2-2.1 0-.4 1.2.5 2.6 2l2.7 2.8-.6-4c-.4-2.7-.3-3.5.3-2.5.8 1.2 1 1.2 1-.5.1-2 .1-2 1.6 0 .8 1.1 1.2 2.5 1 3.2-.3.7-.1 1.5.4 1.8.6.4 1 .2 1-.4 0-.6.6-.8 1.4-.5 1.6.6 2.9-5.5 1.5-7.1-1.2-1.2-1.1-3.5.1-3.5.6 0 1 .8 1 1.8 0 .9 1 2.3 2.2 3.1 1.9 1.2 2.3 1.1 3.4-.3.8-1.1 1.4-1.3 1.9-.6.9 1.4 2.5.3 1.9-1.4-.9-2.3 1.8-3.1 3.2-1.1 2 2.7 3 1 1.6-2.8-1.6-4.5-1.6-11 .1-10.4.6.2 1.1 1.3.9 2.3-.2 1.6-.1 1.6.7.4.5-.8.7-2.8.4-4.5-.6-2.6-.7-2.7-1.5-1-.7 1.7-.8 1.6-.3-.5.2-1.4.5-4.2.5-6.3 0-2.3.4-3.6 1-3.2.5.3 1 0 1-.7 0-1.5-2-4.8-2-3.3 0 .5-.7-.4-1.6-2-1.9-3.8-2.4-12.2-.7-14.4.7-.9 1.3-2.4 1.3-3.5 0-1.5.3-1.6 1.5-.6.8.7 1.5 1.9 1.5 2.7 0 1.5 2 1.4 6.4-.3 2.5-1 2 2.3-.6 3.7-1.6.9-2.3.9-2.6 0-.5-1.6-1.9-1.4-2.6.6-.4.9.1 2.3 1.3 3.4 1 1 2.2 2.4 2.5 3.1.5 1 .7 1 1.2 0 .8-1.7 2.4-1.5 2.4.3 0 .9-.7 1.8-1.6 2.2-2.3.8-3.3 4.4-2.2 7.5 1 2.8 3 3.9 2.7 1.5-.1-.6-.1-2.1 0-3.2.2-1.9.3-1.8 1.1.2 1.1 2.8 2.2 2.9 4.5.3 1-1.1 2.1-1.7 2.6-1.4.5.2 1.5-1.1 2.3-3.1.8-1.9 2.1-3.5 2.9-3.5.8 0 2-1.3 2.7-2.9 1-2.5.9-3.4-.4-5.3-.9-1.2-1.6-3.1-1.6-4.2 0-2 0-2 1.6 0 1.1 1.3 1.7 1.5 2 .7.8-1.8 5.5-.5 7.2 1.9 1.7 2.3 3.7 2.3 6.2 0 1.1-1 3-1.8 4.2-1.7 2.7 0 8.8 2.7 8.8 3.8 0 .4 1.1.1 2.3-.8 2.2-1.4 2.4-1.4 3.6 1.1.8 1.9 1.6 2.4 2.9 1.9.9-.5 3.1-1 4.7-1.3 2.5-.3 2.8-.2 1.8.9-.7.7-1.3 2.4-1.3 3.8 0 1.9.3 2.2.9 1.2.5-.7 1.3-1.1 1.9-.7.6.3 1.4 0 1.9-.8.8-1.4 1.2-1.6 3.4-1.6.8 0 .8-.4.1-1.3-.7-.8-.7-1.8-.1-2.7.8-1.3 1-1.3 1.9 0 .6 1 1.3 1.1 1.8.5 1.2-1.7 6.3-4.7 6.9-4.1.3.3-.5 1.4-1.8 2.5s-2.1 2.2-1.8 2.6c.6.5 9.9-8 9.9-9.2 0-.3-.7-.3-1.5 0-1.2.5-1.2.2-.3-2.1.7-1.5 1.5-3.2 1.9-3.7.4-.6.7-2.2.7-3.7s1.1-3.8 2.6-5.5c1.4-1.5 3.2-4.2 3.8-6 .9-2.6 1.5-3 2.9-2.2 1.1.6 2 .5 2.4-.1 1.7-2.8 2.5-.5 1.9 5.7-.5 4.9-.4 6.4.5 5.9.6-.4.9-1.2.5-1.7-.3-.5.6-2.3 2-4 1.4-1.7 2.6-3.5 2.6-4s.5-.9 1-.9c1 0 .4 4.2-.8 6.3-.8 1.5-.8 9.7 0 9.7.4 0 1.6-.8 2.6-1.8 2.6-2.6 6.2-3.4 6.9-1.6.3.8 1.3 1.4 2.2 1.4 1.3.1 1.2.4-.6 1.9-1.3 1.1-2.3 2.7-2.3 3.6 0 1.4.8 1.6 5.8 1.1 3.1-.3 5-.3 4.1 0-1.2.4-1.6 1.7-1.5 4.9.1 2.4.4 4.7.9 5.1.4.4-.3 1.8-1.5 3.2l-2.3 2.4 2.8-.7c1.7-.5 2.7-.3 2.7.4 0 .6-.5 1.1-1 1.1-1.1 0-9.2 5.1-8.8 5.5.8.8 13.9-2.4 15.9-3.9 1.3-.9 2.9-1.6 3.5-1.6 2.2 0 2.3 2.9.1 4.9-1.2 1.1-3.8 3.4-5.7 5.1l-3.5 3.1 3.5-.5c1.9-.2 4.9-.8 6.5-1.1l3-.7-3.4 2.6c-2.8 2.1-3.1 2.6-1.5 2.7 1.4 0 1.5.2.4.6-.8.4-2.1 1.2-2.8 2-.7.7-2 1.3-2.7 1.3-.8 0-1.7.4-2 1-.6 1 3.8.5 8.6-1 1.5-.4 3.2-.4 4 .1 1.1.8.8 1.5-1.6 3.4-1.6 1.4-3.3 2.5-3.6 2.5-.9 0-2.1 3.2-1.4 3.8.2.3 1.1-.1 2-.8 1.2-1 1.5-1 1.5.4 0 .9.6 1.6 1.3 1.5.6-.1 2.3-.1 3.7 0 2.1.1 2.2.3 1 1.4-1.3 1.2-10.1 4.9-11.5 4.8-.2 0-2 .6-3.9 1.4-2 .8-5 1.5-6.8 1.6l-3.3.1 3.5.9c4.8 1.2 12.4.1 15.4-2.2 1.3-1 3-1.9 3.8-1.9.8 0 1.8-.4 2.3-.9 1.8-1.6 8.9-3.1 9.9-2.1.6.6 2.1 1 3.6 1.1 2.3 0 2.3.1.5.9-1.1.4-3.9 1.4-6.2 2-2.3.7-4 1.7-3.7 2.1.7 1.2 8.4 1.1 12 0 1.6-.5 4.2-1.2 5.8-1.6 2.6-.5 2.8-.4 2.3 1.5-.5 2-.3 2.1 2.9 1.6 2.7-.6 3.6-.3 4.1 1 .7 1.9-1.2 3.4-4.3 3.4-1.2 0-3.2.9-4.5 1.9l-2.4 2 6-.5c5.9-.5 6-.5 3.2 1.1-1.5.9-2.5 2-2.2 2.6.4.5 1 .7 1.5.4.5-.3 3.7.1 7.2.9 5.4 1.3 6.6 1.2 9.1 0 1.5-.8 3.1-2.3 3.4-3.2.4-.9 1.5-2.9 2.5-4.4 2.2-3.2 2.3-4.8.3-4.8-1.8 0-1.8-.1-.4-3.7 1.2-2.9 1.4-14.7.3-16.5-.4-.6 1.1-2.5 3.2-4.4 2.6-2.3 3.2-3.4 2.1-3.4-1.9 0-2.3-1.5-.7-2.5.6-.3 1-1.7 1-3.1 0-1.3.9-2.9 2-3.6 1.1-.7 2-2 2.1-2.8 0-.9.2-1.1.5-.3.7 1.7 3.4.4 2.7-1.3-.3-.8 0-1.4.6-1.4s1.1-1.1 1.1-2.5c0-4 1.6-2.9 1.7 1.2.1 2.1.2 4.7.3 5.8.3 3.8-.4 7-1.8 8.7-1.3 1.6-1.3 1.8.2 2.4 1.2.5 1.4.9.6 1.4-1.2.8.3 4.6 2.5 6.3.6.4.3 1.3-.9 2.2-1.6 1.2-1.7 1.7-.5 3.2 2.1 2.8 6.3 6.2 7.5 6.3.7 0 1.4.7 1.8 1.5.3.8 1.2 1.5 2.1 1.5.8 0 1.5.7 1.5 1.4 0 1.4-2.4 3.1-7.7 5.5-2.8 1.3-2.9 2.8-.3 3.6 1.1.3 2 1 2 1.4 0 1.1-5.2 2.1-7.6 1.5-1.2-.3-3 .4-4.7 2-4 3.7-3.4 5.1 2.1 4.9 1.8-.1 1.5 1.4-.6 2.1-3.7 1.2-8.3 4.4-7.3 5.1.6.3 1.1 1.5 1.1 2.5s.7 2.6 1.6 3.5c.9.9 1.5 1.7 1.3 1.9-1.1.8-9 2.6-11.3 2.6-1.4 0-2.6.4-2.6 1 0 .5.4 1 1 1 1.1 0 5.1 4.2 4.5 4.8-.2.2-1.9-.4-3.7-1.5-3.5-2.1-7.6-2.5-8-.8-.2.5 1.1 1.1 2.7 1.3 3.2.4 6 2.2 3.4 2.2-.8 0-2.1.9-2.9 2-.9 1.3-2.6 2-4.7 2-3.2 0-13.4 2.3-15.3 3.5-2.4 1.5.4 2.1 8.9 2 5.7-.1 9.2.2 9.4.9.3.6 2.8 2 5.6 3.1 5.4 2.1 7.2 4.1 2 2.3-2-.7-6.2-.8-11.8-.3-4.7.4-10.5.7-12.8.7-3.3-.1-4.5.4-5.3 1.8-1 1.8-.7 2 2.5 2 2 0 3.4.4 3.1.9-.3.5.6 1.1 2 1.4 1.8.3 2.4.1 2-.9-.6-1.6.5-1.9 1.9-.5.6.5 2 1.2 3.3 1.6 1.9.5 2.2.3 2.2-1.9 0-2.3.4-2.6 3.6-2.6 2.1 0 3.3.4 2.9 1-.7 1.1 2.4 1.4 10.1 1.1 4.1-.2 6.6.4 12.5 3.2 4.1 2 9 5.2 10.9 7.2l3.5 3.7-7.2-3.6c-7.1-3.5-11.6-4.5-12.8-2.7-.7 1.3 6.4 7 9.5 7.7 1.4.3 4.1 1.3 6 2.2 3.1 1.4 3.3 1.6 1.2 2-1.8.3-2.1.8-1.7 3.3.5 2.7.3 2.9-2.7 2.9-4.3 0-2.5 1.6 3.1 2.7 5.1.9 6.4 2.9 2.8 3.8-1.5.4-2.8 1.6-3.1 2.9-.7 2.7-6 4.6-13 4.6-7.2 0-5.3 2.2 3.2 3.9 7.1 1.5 8.8 2.6 5.5 3.7-6.1 1.9-6.6 2.4-4.9 4.3.9 1 1.6 2.3 1.6 2.9 0 .7.7 1.2 1.6 1.2.9 0 1.4.6 1.1 1.2-.2.7.3 1.9 1.2 2.5 1.4 1.1 1.4 1.4.1 2.2-.8.6-3.1 1.3-5.1 1.6-3.9.7-6.1 4.1-3.3 5.2 1.8.7.8 2.3-1.4 2.3-5.1.1-5.2 4.9-.1 7.5 1.9 1 2.9 2.3 2.9 3.8 0 1.3 1.4 3.6 3 5.2 1.7 1.6 3 3.8 3 5 0 1.2.9 3 2 4 2.3 2.1 1.8 3.5-1.5 3.5-1.5 0-3.1 1-4.1 2.5-1.5 2.3-1.5 2.9.2 8.5 1.4 4.9 2.7 6.8 6.1 9.6 2.4 1.9 4.3 4 4.3 4.5 0 .6-2.8.8-6.6.7l-6.7-.3-1.3 3.5c-1.7 4.9-1.8 18.8 0 22.2 1.3 2.5 1.3 2.7-.7 3-3 .4-3.8 6.7-1.9 14.3 1.3 5.4 1.3 5.7-.7 7.1-2.6 1.9-2.6 2.8 0 6.3 1.1 1.5 2.1 3.6 2.3 4.7.1 1 1.7 2.8 3.4 3.9 3.2 2.1 5.7 6.1 4.3 7-.5.3-1.9 2.3-3 4.6l-2.2 4.1 2.8 4.5c3.9 6.2 5.1 8.5 5.7 10.6.7 2.2 8 5.6 12.1 5.7 1.9 0 4.2 1.2 6.2 2.9 2.9 2.7 3.1 3.4 3 8.7l-.2 5.7 5.7 2c4.8 1.7 5.7 2.5 6.2 5 .3 1.6.3 4 0 5.3-.4 1.5.5 4.6 2.5 9 1.7 3.6 3.1 7.6 3.1 8.9 0 1.2.7 2.8 1.5 3.5 1.3 1.1 1.6 3.8 1.4 15.1 0 7.6.2 14.3.6 15 .5.7-.1 1.8-1.3 2.8-1.2.9-2.2 3-2.4 5.1l-.3 3.5 34.8.3 34.7.2V0H0v300zM485.2 51.1c.3.9 1 .8 2.5-.1 1.1-.7 2.8-1 3.7-.7 1.6.6 1.6.9.2 2.9-.9 1.2-1.6 2.6-1.6 3 0 1.4 2.3.9 4.2-.9 1.7-1.5 2-1.5 2.8-.3.6.9.6 1.6 0 1.8-.6.2-1 .8-1 1.3 0 .4.7.6 1.5.3 1.2-.5 1.5.4 1.6 4.2.1 2.7.3 4.1.6 3.1.2-.9.8-1.7 1.3-1.7s.9.8.9 1.7c.1 1 .4 3.6.7 5.9.4 3.2.2 4.5-1.3 5.9-1 1-1.8 2.1-1.8 2.4 0 .3-.6 1.5-1.2 2.6-1.1 1.8-1.3 1.7-1.4-1.5-.1-1.9-.3-2.8-.5-2-.3.8-1.6 2-2.9 2.7-2 .9-2.5.8-2.5-.3 0-.8.5-1.4 1.2-1.4 1.4 0 8.8-7 8.8-8.2 0-.5-1.1-.6-2.5-.2-2.2.5-2.5.3-2.5-2 0-2.4-.2-2.5-2.1-1.4-1.8 1.1-2.3 1-3.6-.9l-1.4-2.2-4.2 4c-2.3 2.1-4.5 3.9-4.9 3.9-.3 0-1.9 1.1-3.5 2.4-1.5 1.3-4.6 3.1-6.7 4-3.9 1.6-3.9 1.6-2.1-.4 1-1.1 2.3-2 2.9-2 1.3-.1 7.6-5.6 7.6-6.7 0-.5.9-1.4 2-2.1 2.8-1.7 2.6-4.2-.4-4.2-1.3 0-2.7.6-2.9 1.2-.4 1-.7 1-1.4 0-.7-.9-1.5-.6-3.3 1.3-2.9 3-4.4 3.2-3.7.4.5-1.8.2-2-1.9-1.5-1.9.5-2.4.3-2.4-1.4 0-1.1.7-2 1.5-2s1.5-.7 1.5-1.5c0-.9.9-1.5 2.1-1.5 1.8 0 1.9.2.9 1.5-1 1.2-1 1.5.4 1.5 1.6 0 2-.9 1.6-4.7-.3-3.7 4.2-7.1 5.3-4.1.3.9 1.2.6 2.8-1 2.6-2.4 4.5-2.8 5.1-1.1zm-21.9 8.5c.3.3-.8 2.8-2.5 5.5-1.7 2.8-3.3 4.8-3.5 4.5-.3-.3-1.7.6-3.1 2-1.5 1.3-3.4 2.4-4.4 2.4-.9 0-2.3 1.2-3 2.7-1.3 2.7-5.7 4.6-7.7 3.4-1.6-1.1-1.9-5.7-.2-5.3.9.2 1.1-.3.7-1.5-.4-.9-.4-1.4 0-1.1.4.4 1.8-.2 3.2-1.2 1.3-1.1 3.1-2 3.9-2 1 0 1.3-.6.9-1.6-.8-2 5.5-4.9 6.7-3.1.5.8 1.6.2 3.5-2 2.6-3.1 4.3-3.9 5.5-2.7zM465 82c0 .5-.5 1-1.1 1-.5 0-.7-.5-.4-1 .3-.6.8-1 1.1-1 .2 0 .4.4.4 1zm29.4 15.5c-1 .8-3 1.4-4.4 1.5h-2.5l2.5-1.4c1.4-.8 3.4-1.4 4.4-1.5 2-.1 2-.1 0 1.4zm.6 8c0 2.1-1.9 2.7-5.5 1.6l-3-.9 2.5-1c3.6-1.6 6-1.4 6 .3zm-94.3 2.7c-.3.8-.6.5-.6-.6-.1-1.1.2-1.7.5-1.3.3.3.4 1.2.1 1.9zM492 110c0 .5-.4 1-1 1-.5 0-1-.5-1-1 0-.6.5-1 1-1 .6 0 1 .4 1 1zm2 3c0 .5-.7 1-1.6 1-1.3 0-1.4.3-.4 1.5 1.6 1.9.5 4.7-1.7 4.3-.9-.2-1.5-.5-1.4-.8.1-.3-.2-1.7-.8-3.2-.7-1.9-.7-2.8.2-3.2 2.2-.8 5.7-.6 5.7.4zm-2 9.5c-.7.8-1.9 1.5-2.7 1.5-1.3 0-1.3-.3-.3-1.5.7-.8 1.9-1.5 2.7-1.5 1.3 0 1.3.3.3 1.5zm-134 11.8c0 1.5.6 3 1.4 3.3 1.5.6 1.9 5.1.9 8.9-.5 1.6-.8 1.3-1.9-1.8-1.8-5-2.9-16.8-1.5-14.7.6.8 1.1 2.8 1.1 4.3zm-162.9 23.3c.9 2.7 2 6.8 2.4 9.1.6 3.6.4 4.4-1.2 5-1 .3-2.1 1.1-2.4 1.6-1.8 2.7-8.2-9.4-6.4-12.2.3-.5-.1-1.2-.7-1.4-.9-.4-.7-1.1.8-2.4 1.2-1 2.4-2.6 2.8-3.6 1-3 3-1.4 4.7 3.9zm-126-.6c1 .6 1.9 1.7 1.9 2.4 0 .8.7 1.9 1.5 2.6.8.7 1.5 2 1.5 2.9 0 .9 1.4 3.1 3 4.9 1.7 1.8 3 4 3 4.9 0 .8 1.4 3.2 3 5.3 1.7 2.1 3 4.6 3 5.6s.8 2.7 1.9 3.8c2.6 3 3.4 8.1 1.5 10.1-1.4 1.4-1.9 1.3-5.2-.6-8.8-5.2-12.2-10.6-12.2-19 0-2-.7-4.2-1.5-4.9-.8-.7-1.5-2-1.5-2.9 0-1-.7-2.6-1.5-3.7-1.9-2.5-1.9-4.4 0-4.4.8 0 1.5-.5 1.5-1 0-.6-.6-1-1.2-1-.7 0-1.8-1.1-2.4-2.5-1.1-2.3-.8-2.9 1.4-3.4.2-.1 1.2.4 2.3.9zm29.5 53.8c1.6 1 3.4 4.8 2.7 5.6-1.3 1.3-3.8.5-6-2-1.2-1.5-2-3.1-1.7-3.5.6-1.1 3.5-1.1 5-.1zm155.4 9.3c0 .5-.4.9-1 .9-.5 0-1-.7-1-1.6 0-.8.5-1.2 1-.9.6.3 1 1 1 1.6zM477 261c0 .5-.2 1-.4 1-.3 0-.8-.5-1.1-1-.3-.6-.1-1 .4-1 .6 0 1.1.4 1.1 1zm-10.5 5.7c-1.1.3-2.3 1-2.7 1.6-.4.6-1 .8-1.5.4-1-1.1 1.7-2.7 4.2-2.6l2 .1-2 .5zM226 282c0 2.5-2.5 2.6-4.8.3-1.6-1.6-1.6-1.6 0-1 1 .3 2 .2 2.3-.3 1-1.7 2.5-1.1 2.5 1zm4 1.1c0 1-.4 1.9-1 1.9-.5 0-1-1.2-1-2.6 0-1.4.4-2.3 1-1.9.6.3 1 1.5 1 2.6zm34.5 11.9c.7 2.3-.1 4-1.8 4-.9 0-.9-.2 0-.8.9-.6.7-1.2-.7-2.2-2.5-1.8-2.5-3-.1-3 1.1 0 2.2.9 2.6 2zm7.5 26.1c0 1.2-2.9 2.4-3.7 1.6-.3-.4-.3-1.3 0-2.1.6-1.6 3.7-1.1 3.7.5zm-108.2 66.5c3.2.9 2.7 2.4-.8 2.4-1.6 0-3-.4-3-1 0-.5-.6-.7-1.4-.4-.8.3-1.7.1-2.1-.5-.7-1.2 3.5-1.5 7.3-.5zm-1.9 6c4.6.9 3.8 5.4-.9 5.4-1.4 0-5-4.2-4.4-5.2.6-1 1.2-1 5.3-.2zm14.1 1.6c0 1.1-5.7 1-6.4-.1-.3-.5 1-.9 2.9-.8 1.9.1 3.5.5 3.5.9zm115 17.4c0 .8-.4 1.2-1 .9-.5-.3-1-1.3-1-2.1s.5-1.2 1-.9c.6.3 1 1.3 1 2.1zm-10.3 6c-.3.3-1.2.4-1.9.1-.8-.3-.5-.6.6-.6 1.1-.1 1.7.2 1.3.5zM143 437.2c0 2.2-5.2 8-6.2 7-1.1-1.1.3-4.3 3-7.4 1.5-1.8 3.2-1.6 3.2.4zm22.8 82.1c-.7 2-1.7 3.6-2.3 3.6-1.7 0-.7-5 1.2-6.4 2.4-1.8 2.5-1.5 1.1 2.8z"/><path d="M452 66.6c0 .8.5 1.2 1 .9.6-.3 1-1 1-1.6 0-.5-.4-.9-1-.9-.5 0-1 .7-1 1.6zM450.5 70c-.3.5.1 1 .9 1 .9 0 1.6-.5 1.6-1 0-.6-.4-1-.9-1-.6 0-1.3.4-1.6 1zM369.3 151.7c-.7.2-1.3.9-1.3 1.4 0 .6.7.6 1.9 0 1-.6 2.1-.7 2.5-.4.3.3.6.1.6-.5 0-1.2-1.5-1.4-3.7-.5zM355.5 174c-.3.5-.1 1 .4 1 .6 0 1.1-.5 1.1-1 0-.6-.2-1-.4-1-.3 0-.8.4-1.1 1zM350.8 175.7c.6.2 1.8.2 2.5 0 .6-.3.1-.5-1.3-.5-1.4 0-1.9.2-1.2.5zM275.5 216c0 3.3.3 6 .6 6 1.1 0 1.9-5.8 1.3-9-1-4.9-1.9-3.4-1.9 3zM487.1 217c-3 1.5-5.8 3.5-6.3 4.4-.5.9-1.8 1.6-2.9 1.6-1.1 0-1.7.4-1.4 1 1.3 2.2 12.5-.4 12.5-2.8 0-.4 1.4-1.3 3-2 1.8-.8 3-2.1 3-3.3 0-2.4-1.2-2.2-7.9 1.1zM261.7 224c.3 1.1.9 1.7 1.4 1.5 1-.7.1-3.5-1.1-3.5-.5 0-.6.9-.3 2zM361.4 224.4c-1 .8-1.6 1.7-1.2 2.1.4.4 1.7-.2 2.9-1.4 2.6-2.4 1.3-2.9-1.7-.7zM367.6 224.9c-.3.4.6.6 1.9.3 1.4-.2 2.5-.6 2.5-.8 0-.8-3.9-.4-4.4.5z"/><path d="M343.2 228.5c-1.1 1.4-2.4 2.5-2.8 2.5-.5 0-2.4 1.3-4.3 2.9-2.7 2.2-3.2 3.2-2.6 4.7.8 1.9.8 6.6-.1 9.6-.9 3.1 3.9.8 9.6-4.7 5.6-5.4 18.1-13.5 20.9-13.5.9-.1 3.3-.3 5.4-.6 4.2-.6 4.5-.3 2 2.2-1.7 1.7-1.6 1.7 1.2 1 3.5-.9 4.5-1.7 2.7-2.3-.8-.3-.5-1.1 1-2.4l2.3-1.8-4.8-.1c-3.7 0-6.6 1-13 4.2-9.9 5.1-10.6 5.4-8.9 3.7 2.1-2.3 1.5-4.2-1.3-3.7-2.5.5-3.4-.5-1.5-1.7.6-.3 1-1.1 1-1.7 0-.7-1.3.1-3 1.7-3 2.9-4.4 2-1.4-.9.8-.9 1.1-1.6.5-1.6-.5 0-1.8 1.1-2.9 2.5zM240 228c0 .5.5 1 1 1 .6 0 1-.5 1-1 0-.6-.4-1-1-1-.5 0-1 .4-1 1zM472 231c0 .5.7 1 1.6 1 .8 0 1.2-.5.9-1-.3-.6-1-1-1.6-1-.5 0-.9.4-.9 1zM379 236.6c0 1.4 4.7 4.3 7 4.3l2.5-.1-2.7-1.1c-1.6-.6-2.8-1.5-2.8-2 0-.4.5-.5 1-.2.6.3 1 .1 1-.4 0-.6-1.3-1.1-3-1.1-1.6 0-3 .3-3 .6zM446.7 239c-11.5 4.1-11.9 5.1-1.7 4.8 4.7-.1 7.7-.4 6.8-.6-2.8-.6-2.1-1.6 2.2-3.4 4.1-1.7 5.4-3.9 2.3-3.7-1 0-5.3 1.3-9.6 2.9z"/><path d="M348.4 243.3c-1.1.6-3.7 3.4-5.8 6.4-2 2.9-4.3 5.3-5 5.3-.7 0-2.5 1.8-4.2 4-1.8 2.5-3.7 4-5.1 4-1.3 0-2.3.5-2.3 1.1 0 .6-.6.9-1.2.7-.7-.3-1.9.2-2.7.9-1.1 1.2-1.5 1.2-2.2.1-.7-1.1-.9-1.1-.9.1 0 .9-.8 1.2-2.6.8-2.5-.4-2.6-.4-2 3.9.3 2.4.1 4.4-.4 4.4-1.1 0-.2 5.9 1.1 7.6.5.6.6 1.4.2 1.8-1.4 1.4-1.3 4.6.2 4.6 1.7 0 2 1.6.5 2.5-.5.3-1 1-1 1.4 0 1.5 13.2 14.1 14.8 14.1 1.1 0 1.2-.3.2-1.5-.7-.9-.9-2.6-.5-4.5.6-2.5 1-3 2.7-2.4 1.7.5 1.9.3 1.3-1.8-.7-2.2-.7-2.3 1.3-.5 1.5 1.4 2.1 1.5 2.5.5.5-1 .8-1 1.6.2.6.8 1.5 2.2 2.1 3 .8 1.3 1.1 1.3 1.9.1.7-1.1 1-1.1 1.7.1.5.7 2.2 2.2 3.8 3.2 2.3 1.5 3 1.6 3.7.5.7-1.1 1.2-1.2 2.6-.1 4.6 3.2 6.3 3.6 7.6 1.8.7-1 2.7-1.7 5-1.8 2-.1 3.7-.4 3.7-.8 0-.7 3.8-2.3 5.1-2.2.3.1 1.9-1.2 3.4-2.8 1.6-1.7 2.3-3 1.6-3-.9 0-.9-.3.1-1.4.7-.8 1.6-1.2 2-1 .5.3 4.8-6 4.8-7.1 0-.3-.8-.1-1.7.2-1.7.7-1.7.6-.1-1.9 1-1.5 1.5-3.7 1.2-5.2-.3-1.8 0-2.6 1-2.6.8 0 1.8.5 2.1 1 .5.8 1.1.8 1.9.1.7-.6 2.2-.8 3.3-.5 1.9.5 2.2.2 2-3-.1-2-.6-3.6-1-3.6-1.3 0-2.5-4.4-1.5-5.7.6-.7.5-1.4-.2-1.8-.5-.3-1-1.3-1-2.2 0-.9-.8-2.5-1.7-3.6-1-1.1-1.2-1.7-.5-1.3.6.4 1.7.4 2.4 0 .8-.5.2-1.1-1.7-1.6-1.6-.4-3-.6-3.1-.5-.1.1.4 2.6 1.2 5.6 1.6 6.3.6 8.9-2.7 6.8-2.2-1.4-2.6-2.9-.4-2.1 2.6 1-8.9-10.3-12.2-12-1.8-.9-3.6-2.3-4-3.1-.5-.8-2.6-1.8-4.8-2.3-2.4-.5-3.9-1.4-3.7-2.1.2-1-1.2-1.2-5.3-.9-3 .1-5.5 0-5.5-.5 0-.9-.9-.7-3.6.6zm22 23.2c.8 2.3-1.2 2.8-2.3.6-.6-1.1-1.1-2.2-1.1-2.5 0-1.1 2.9.6 3.4 1.9zm-29.8 3.1c-.4.9-.9 1.5-1.1 1.2-.3-.3-.3-1.3.1-2.2.4-.9.9-1.5 1.1-1.2.3.3.3 1.3-.1 2.2zM323 269c0 .5-.4 1-1 1-.5 0-1-.5-1-1 0-.6.5-1 1-1 .6 0 1 .4 1 1zm-5 1c0 .5-.4 1-1 1-.5 0-1-.5-1-1 0-.6.5-1 1-1 .6 0 1 .4 1 1zm43 4.6c0 1.9-2.8 1.8-4.8-.3-1.6-1.6-1.6-1.6 0-1 1 .3 2 .2 2.3-.4.8-1.3 2.5-.2 2.5 1.7zM431 245c-1.3.9-1.3 1 0 .9.8 0 2.4-.4 3.5-.9l2-.9h-2c-1.1 0-2.7.4-3.5.9zM311.7 271.7c-.4.3-.7 1.1-.7 1.7 0 .6.5.5 1.2-.2.6-.6.9-1.4.7-1.7-.3-.3-.9-.2-1.2.2zM416.6 277.8c-.3.6.1 1.2.9 1.6.8.3 1.5 1.2 1.5 2.1 0 .8.5 1.5 1 1.5.6 0 1-.7 1-1.5s-.4-1.5-1-1.5c-.5 0-.9-.5-.7-1.1.3-1.5-1.9-2.3-2.7-1.1zM434.7 279.4c-.4 1-.1 1.3.9.9 1.5-.6 1.9-2.3.5-2.3-.5 0-1.1.7-1.4 1.4z"/><path d="M390 281.5c-.7.9-1.1 1.8-.8 2 .3.3 1.1-.1 1.8-1s1.1-1.8.8-2c-.3-.3-1.1.1-1.8 1zM416 289c1.4 2.5 1.3 3-.5 2.4-1.9-.8-1.9.3.1 2.3 1.2 1.2 1.3 1.8.3 2.3-.6.5-.9 1.5-.6 2.4.3.8.1 2.9-.5 4.6-2 5.8 1.9 10.9 10.4 13.8 4.9 1.7 6.6.7 4-2.2-1.4-1.4-2.4-4.6-3.1-9.6-1.4-10.1-2.9-15-4.6-15-.7 0-1.5-.5-1.7-1-.2-.6-1.3-1.2-2.6-1.5-1.9-.3-2.1-.1-1.2 1.5zm9 23.6c0 .8-.4 1.2-1 .9-.5-.3-1-1.3-1-2.1s.5-1.2 1-.9c.6.3 1 1.3 1 2.1zM477 293c0 1.1.7 2.3 1.5 2.6.9.4 1.3 1.5 1.1 2.8-.2 1.1-.1 1.5.1.8.3-.6 1-1.2 1.7-1.2.6 0 1.7-.5 2.3-1.1 1.3-1.3.4-2.4-3.5-4.7-2.9-1.6-3.2-1.5-3.2.8zM432.4 311v4.9l3.5-.2c2.8-.2 3.8.3 4.6 2 1.2 2.7 6.5 4.9 7.6 3.2.4-.7.3-1.7-.2-2.3-.6-.6-2.7-3.4-4.7-6.1-2.9-3.9-4.2-4.9-6-4.7-1.3.2-2.9-.1-3.6-.7-.9-.8-1.2.1-1.2 3.9zM322 396c0 .5.7 1 1.5 1s1.5-.5 1.5-1c0-.6-.7-1-1.5-1s-1.5.4-1.5 1zM298 414.9c0 .6.5 1.3 1 1.6.6.3 1-.1 1-.9 0-.9-.4-1.6-1-1.6-.5 0-1 .4-1 .9zM308.3 493.8c1 1 1.7 2.6 1.7 3.5 0 .9.5 1.7 1 1.7.6 0 1 .8 1 1.8 0 1.1.9 2.7 2 3.7 1.9 1.7 2.1 1.7 4 0 2.5-2.2 2.5-4.3.1-7.4-1.4-1.8-2.5-2.3-4.4-1.9-2 .4-2.8 0-3.2-1.3-.4-1.1-1.3-1.9-2.2-1.9-1.4 0-1.4.2 0 1.8zM200 537.1c0 1.2.5 1.9 1.2 1.7 1.8-.6 2-2.5.3-3.1-1-.5-1.5 0-1.5 1.4zM203.7 565.4c-2.1 3.1-3.1 7.2-2.1 8.7.4.8 1.3 0 2.5-2.2 1.2-2.5 1.4-3.6.6-4.2-.7-.5 0-.6 1.6-.3 3 .7 3.6-.7 1.3-3-1.9-1.9-2.1-1.8-3.9 1zM207 578c-.6 1.1-.8 2.5-.4 3.2.6 1 3.3-2.5 3.4-4.5 0-1.5-2-.6-3 1.3zM213.7 580.1c-.8 1.3-1.8 4.9-2.2 8-.4 4.2-1.3 6.3-3.1 8-3.1 2.9-3 3.9.4 3.9 2.7 0 2.9-.3 4.1-6.7 2.5-13.8 2.3-13 3.2-10.8l.8 2v-2c0-1.1-.3-2.6-.8-3.4-.7-1.1-1.2-.9-2.4 1zM257.7 597.7c-1.2 1.1-.8 2.3.8 2.3.8 0 1.5-.7 1.5-1.5 0-1.6-1.2-2-2.3-.8zM223.5 599c-.3.5.1 1 1 1s1.3-.5 1-1c-.3-.6-.8-1-1-1-.2 0-.7.4-1 1z"/></svg>